<?xml version="1.0" encoding="UTF-8" standalone="no"?>
<svg
   xmlns:dc="http://purl.org/dc/elements/1.1/"
   xmlns:cc="http://creativecommons.org/ns#"
   xmlns:rdf="http://www.w3.org/1999/02/22-rdf-syntax-ns#"
   xmlns:svg="http://www.w3.org/2000/svg"
   xmlns="http://www.w3.org/2000/svg"
   viewBox="0 0 1122.52 793.70135"
   height="793.70135"
   width="1122.52"
   xml:space="preserve"
   id="svg2"
   version="1.1"><metadata
     id="metadata8"><rdf:RDF><cc:Work
         rdf:about=""><dc:format>image/svg+xml</dc:format><dc:type
           rdf:resource="http://purl.org/dc/dcmitype/StillImage" /></cc:Work></rdf:RDF></metadata><defs
     id="defs6"><clipPath
       id="clipPath20"
       clipPathUnits="userSpaceOnUse"><path
         id="path18"
         d="M 0,595.276 H 841.89 V 0 H 0 Z" /></clipPath></defs><g
     transform="matrix(1.3333333,0,0,-1.3333333,0,793.70133)"
     id="g10"><path
       id="path12"
       style="fill:#7fcc28;fill-opacity:1;fill-rule:nonzero;stroke:none"
       d="M 0,0 H 841.874 V 595.074 H 0 Z" /><g
       id="g14"><g
         clip-path="url(#clipPath20)"
         id="g16"><g
           transform="translate(619.988,333.2585)"
           id="g22"><path
             id="path24"
             style="fill:#ffffff;fill-opacity:1;fill-rule:nonzero;stroke:none"
             d="M 0,0 C 1.449,0 2.83,-0.276 4.141,-0.828 5.452,-1.38 6.59,-2.139 7.556,-3.105 8.523,-4.072 9.282,-5.193 9.834,-6.47 c 0.552,-1.276 0.828,-2.639 0.828,-4.089 0,-1.449 -0.276,-2.829 -0.828,-4.14 C 9.282,-16.01 8.523,-17.149 7.556,-18.115 6.59,-19.081 5.452,-19.84 4.141,-20.392 2.83,-20.944 1.449,-21.221 0,-21.221 c -1.449,0 -2.812,0.277 -4.089,0.829 -1.276,0.552 -2.398,1.311 -3.364,2.277 -0.966,0.966 -1.725,2.105 -2.277,3.416 -0.552,1.311 -0.828,2.691 -0.828,4.14 0,1.45 0.276,2.813 0.828,4.089 0.552,1.277 1.311,2.398 2.277,3.365 0.966,0.966 2.088,1.725 3.364,2.277 C -2.812,-0.276 -1.449,0 0,0 m 0,-33.435 c 3.175,0 6.159,0.604 8.954,1.811 2.795,1.208 5.228,2.847 7.298,4.917 2.07,2.071 3.709,4.486 4.917,7.246 1.207,2.76 1.811,5.728 1.811,8.902 0,3.175 -0.604,6.142 -1.811,8.903 -1.208,2.76 -2.847,5.176 -4.917,7.246 -2.07,2.07 -4.503,3.709 -7.298,4.917 -2.795,1.207 -5.779,1.811 -8.954,1.811 -3.105,0 -6.055,-0.604 -8.851,-1.811 -2.794,-1.208 -5.227,-2.847 -7.297,-4.917 -2.071,-2.07 -3.71,-4.486 -4.917,-7.246 -1.208,-2.761 -1.811,-5.728 -1.811,-8.903 0,-3.174 0.603,-6.142 1.811,-8.902 1.207,-2.76 2.846,-5.175 4.917,-7.246 2.07,-2.07 4.503,-3.709 7.297,-4.917 2.796,-1.207 5.746,-1.811 8.851,-1.811 m 21.341,56.044 c 2.392,-1.536 4.595,-3.309 6.608,-5.322 3.588,-3.589 6.418,-7.764 8.488,-12.525 2.07,-4.762 3.106,-9.869 3.106,-15.321 0,-5.451 -1.036,-10.576 -3.106,-15.372 -2.07,-4.795 -4.9,-8.988 -8.488,-12.576 -3.589,-3.589 -7.781,-6.418 -12.577,-8.488 -4.796,-2.071 -9.92,-3.106 -15.372,-3.106 -5.452,0 -10.576,1.035 -15.372,3.106 -4.796,2.07 -8.971,4.899 -12.525,8.488 -3.554,3.588 -6.366,7.781 -8.436,12.576 -2.071,4.796 -3.106,9.921 -3.106,15.372 0,5.452 1.035,10.559 3.106,15.321 1.042,2.397 2.273,4.646 3.691,6.746 z M 0,28.88 c 5.452,0 10.576,-1.034 15.372,-3.105 2.029,-0.876 3.949,-1.887 5.762,-3.034 l -50.45,-6.961 c 0.459,0.513 0.932,1.016 1.419,1.507 3.554,3.588 7.729,6.418 12.525,8.488 4.796,2.071 9.92,3.105 15.372,3.105 M -74.323,9.569 v 1.507 H -90.161 V 28.88 h 48.652 V 14.097 Z m 16.976,-59.67 H -74.323 V 2.938 l 16.976,3.49 z m -76.46,51.463 13.834,27.415 11.974,-23.854 z m -9.932,-19.686 3.934,7.797 35.86,7.373 23.618,-47.05 H -99.27 l -12.649,25.36 3.438,0.285 -3.926,0.694 -7.566,15.17 -6.398,-12.701 z m -59.942,10.045 38.679,37.159 V -2.942 Z m -40.509,37.159 38.997,-37.368 -0.556,-0.077 17.633,-8.186 -0.494,-0.473 -27.512,-4.175 -11.195,10.737 v -12.436 l -16.873,-2.561 z m -33.228,-37.575 c 2.898,0 5.348,1 7.349,3.001 2.002,2.002 3.002,4.452 3.002,7.35 0,2.898 -1,5.348 -3.002,7.35 -2.001,2.001 -4.451,3.002 -7.349,3.002 h -13.147 V -8.695 Z m -1.656,-22.258 -11.491,19.152 v -20.896 l -16.873,-2.56 V 28.88 h 30.02 c 3.726,0 7.246,-0.707 10.558,-2.122 3.313,-1.414 6.211,-3.364 8.695,-5.848 2.484,-2.485 4.434,-5.383 5.849,-8.695 1.415,-3.313 2.122,-6.832 2.122,-10.559 0,-2.622 -0.345,-5.124 -1.035,-7.504 -0.69,-2.381 -1.656,-4.607 -2.899,-6.677 -1.242,-2.071 -2.743,-3.934 -4.503,-5.59 -1.759,-1.656 -3.709,-3.071 -5.848,-4.244 l 3.512,-5.846 z M -352.155,0 c 1.448,0 2.829,-0.276 4.14,-0.828 1.311,-0.552 2.45,-1.311 3.416,-2.277 0.966,-0.967 1.725,-2.088 2.277,-3.365 0.552,-1.276 0.828,-2.639 0.828,-4.089 0,-1.449 -0.276,-2.829 -0.828,-4.14 -0.552,-1.311 -1.311,-2.45 -2.277,-3.416 -0.966,-0.966 -2.105,-1.725 -3.416,-2.277 -1.311,-0.552 -2.692,-0.829 -4.14,-0.829 -1.45,0 -2.813,0.277 -4.089,0.829 -1.277,0.552 -2.399,1.311 -3.365,2.277 -0.966,0.966 -1.725,2.105 -2.277,3.416 -0.552,1.311 -0.828,2.691 -0.828,4.14 0,1.45 0.276,2.813 0.828,4.089 0.552,1.277 1.311,2.398 2.277,3.365 0.966,0.966 2.088,1.725 3.365,2.277 1.276,0.552 2.639,0.828 4.089,0.828 m 0,-33.435 c 3.174,0 6.159,0.604 8.953,1.811 2.795,1.208 5.228,2.847 7.298,4.917 2.07,2.071 3.709,4.486 4.917,7.246 1.208,2.76 1.811,5.728 1.811,8.902 0,3.175 -0.603,6.142 -1.811,8.903 -1.208,2.76 -2.847,5.176 -4.917,7.246 -2.07,2.07 -4.503,3.709 -7.298,4.917 -2.794,1.207 -5.779,1.811 -8.953,1.811 -3.106,0 -6.056,-0.604 -8.851,-1.811 -2.795,-1.208 -5.228,-2.847 -7.298,-4.917 -2.07,-2.07 -3.709,-4.486 -4.917,-7.246 -1.208,-2.761 -1.811,-5.728 -1.811,-8.903 0,-3.174 0.603,-6.142 1.811,-8.902 1.208,-2.76 2.847,-5.175 4.917,-7.246 2.07,-2.07 4.503,-3.709 7.298,-4.917 2.795,-1.207 5.745,-1.811 8.851,-1.811 m 0,62.315 c 5.451,0 10.575,-1.034 15.371,-3.105 4.796,-2.07 8.988,-4.9 12.577,-8.488 3.589,-3.589 6.418,-7.764 8.488,-12.525 2.071,-4.762 3.106,-9.869 3.106,-15.321 0,-5.451 -1.035,-10.576 -3.106,-15.372 -1.913,-4.432 -4.475,-8.348 -7.684,-11.749 l -48.164,-7.31 c -3.14,1.781 -5.969,3.941 -8.486,6.483 -3.554,3.588 -6.366,7.781 -8.436,12.576 -2.07,4.796 -3.106,9.921 -3.106,15.372 0,5.452 1.036,10.559 3.106,15.321 2.07,4.761 4.882,8.936 8.436,12.525 3.554,3.588 7.729,6.418 12.525,8.488 4.797,2.071 9.921,3.105 15.373,3.105 m -68.631,-47.927 v -31.054 h -16.873 V 28.88 h 40.888 V 12.008 h -24.015 V -2.174 h 24.015 v -16.873 z" /></g><g
           transform="translate(479.1053,283.0544)"
           id="g26"><path
             id="path28"
             style="fill:#100f0d;fill-opacity:1;fill-rule:nonzero;stroke:none"
             d="m 0,0 h -18.943 l 11.262,22.32 19.75,1.638 z M -86.435,15.788 V 0.103 h -16.872 v 14.285 z m 62.316,5.168 V 0.103 H -40.992 V 19.557 Z M -149.682,10.541 V 0.103 h -16.873 v 9.039 z m 42.751,-10.438 h -19.771 l -7.056,11.759 18.825,1.562 z m -81.597,7.216 c -2.275,-1.6 -4.732,-2.97 -7.373,-4.11 -4.796,-2.071 -9.92,-3.106 -15.372,-3.106 -5.452,0 -10.576,1.035 -15.372,3.106 -0.593,0.256 -1.177,0.524 -1.752,0.803 z" /></g><g
           transform="translate(228.0169,255.4364)"
           id="g30"><path
             id="path32"
             style="fill:#100f0d;fill-opacity:1;fill-rule:evenodd;stroke:none"
             d="m 0,0 c 6.27,0 11.352,-5.083 11.352,-11.352 0,-6.27 -5.082,-11.352 -11.352,-11.352 -6.27,0 -11.352,5.082 -11.352,11.352 C -11.352,-5.083 -6.27,0 0,0 m 18.006,-14.616 h 7.134 c 0.603,-2.087 2.534,-3.626 4.809,-3.626 h 8.179 v 12.627 h -8.179 c -2.406,0 -4.429,-1.721 -4.9,-3.992 l -5.552,-0.105 c -1.869,-0.036 -1.805,2.257 -2.28,3.768 C 15.757,-1.31 12.952,2.066 8.402,4.794 6.424,5.979 4.203,6.982 2.109,6.754 -2.566,6.246 -2.417,2.497 2.64,1.51 18.28,-1.538 8.155,-14.123 18.006,-14.616 M 0,-5.389 c 3.293,0 5.963,-2.67 5.963,-5.963 0,-3.293 -2.67,-5.963 -5.963,-5.963 -3.293,0 -5.963,2.67 -5.963,5.963 0,3.293 2.67,5.963 5.963,5.963" /></g><g
           transform="translate(606.3284,255.4364)"
           id="g34"><path
             id="path36"
             style="fill:#100f0d;fill-opacity:1;fill-rule:evenodd;stroke:none"
             d="m 0,0 c 6.27,0 11.352,-5.083 11.352,-11.352 0,-6.27 -5.082,-11.352 -11.352,-11.352 -6.27,0 -11.352,5.082 -11.352,11.352 0,4.171 2.25,7.816 5.602,9.789 l -0.791,1.971 c -1.645,-0.827 -2.848,-1.631 -3.748,-2.511 -2.005,-1.963 -2.513,-4.312 -3.101,-8.175 -0.424,-3.673 -0.688,-3.774 -4.196,-4.066 h -6.528 c -0.484,-2.344 -2.623,-3.98 -5.137,-4.228 l -5.654,-0.559 v 3.191 c -0.028,-0.003 -0.057,-0.005 -0.086,-0.005 h -3.854 c -0.482,0 -0.877,0.395 -0.877,0.877 0,0.482 0.395,0.877 0.877,0.877 h 3.854 c 0.029,0 0.058,-0.002 0.086,-0.004 v 4.256 c -0.028,-0.002 -0.057,-0.004 -0.086,-0.004 h -3.854 c -0.482,0 -0.877,0.395 -0.877,0.877 0,0.483 0.395,0.877 0.877,0.877 h 3.854 c 0.029,0 0.058,-0.002 0.086,-0.004 v 3.19 l 5.654,-0.558 c 2.391,-0.236 4.437,-1.722 5.051,-3.878 h 5.775 c 2.186,8.248 3.584,10.301 9.865,14.878 l -3.986,9.932 c -4.589,11.433 0.013,7.081 -13.318,12.562 -0.966,0.397 -1.403,1.5 -0.973,2.451 0.431,0.952 1.543,1.325 2.538,1.009 13.277,-4.209 10.741,-1.104 15.931,-14.27 C -6.253,11.76 -3.79,5.275 -1.753,-0.135 -1.182,-0.046 -0.596,0 0,0 m 0.221,-5.393 c 1.094,-2.921 1.873,-5.013 2.107,-5.618 0.395,-1.021 -0.112,-2.191 -1.126,-2.6 -1.015,-0.41 -2.154,0.095 -2.561,1.11 l -2.339,5.827 c -1.379,-1.092 -2.265,-2.782 -2.265,-4.678 0,-3.293 2.67,-5.963 5.963,-5.963 3.293,0 5.963,2.67 5.963,5.963 0,3.219 -2.551,5.842 -5.742,5.959" /></g><g
           transform="translate(304.2873,255.8622)"
           id="g38"><path
             id="path40"
             style="fill:#ffffff;fill-opacity:1;fill-rule:nonzero;stroke:none"
             d="M 0,0 H -8.38 L -14.037,-10.475 -19.694,0 h -8.38 v -18.332 h 6.809 v 8.721 l 5.002,-8.721 h 4.452 l 5.002,8.721 v -8.721 H 0 Z m 11.47,-18.594 c 6.678,0 10.685,2.305 10.685,8.119 0,5.814 -4.007,8.119 -10.685,8.119 -6.678,0 -10.684,-2.305 -10.684,-8.119 0,-5.814 4.006,-8.119 10.684,-8.119 m 0,5.238 c -2.802,0 -4.399,0.577 -4.399,2.881 0,2.304 1.597,2.881 4.399,2.881 2.802,0 4.4,-0.577 4.4,-2.881 0,-2.304 -1.598,-2.881 -4.4,-2.881 m 26.555,5.5 v 5.237 h -6.416 v 4.19 L 25.324,0 v -2.619 h -3.169 v -5.237 h 3.169 v -5.84 c 0,-3.405 2.409,-4.898 7.28,-4.898 2.069,0 3.929,0.131 5.421,0.393 v 5.107 c -1.807,-0.262 -2.592,-0.262 -4.007,-0.262 -1.833,0 -2.409,0.76 -2.409,2.252 v 3.248 z m 11.209,-10.738 c 6.678,0 10.685,2.305 10.685,8.119 0,5.814 -4.007,8.119 -10.685,8.119 -6.678,0 -10.685,-2.305 -10.685,-8.119 0,-5.814 4.007,-8.119 10.685,-8.119 m 0,5.238 c -2.802,0 -4.4,0.577 -4.4,2.881 0,2.304 1.598,2.881 4.4,2.881 2.802,0 4.399,-0.577 4.399,-2.881 0,-2.304 -1.597,-2.881 -4.399,-2.881 m 10.946,0.446 c 0,-4.924 5.238,-5.684 11.183,-5.684 5.945,0 10.134,0.76 10.134,5.553 0,4.111 -3.954,4.478 -10.134,4.792 -3.981,0.209 -4.636,0.183 -4.636,0.838 0,0.602 0.917,0.602 4.112,0.602 2.802,0 3.85,0 3.85,-0.838 h 6.285 c 0,4.531 -4.059,5.291 -9.873,5.291 -5.814,0 -10.659,-0.76 -10.659,-5.238 0,-4.007 3.169,-4.557 10.397,-4.845 3.771,-0.157 4.373,-0.079 4.373,-0.865 0,-0.68 -0.602,-0.837 -4.111,-0.837 -3.797,0 -4.635,0.34 -4.635,1.231 z m 51.958,7.672 V 0 h -19.38 v -18.332 h 19.38 v 5.238 h -12.57 v 1.702 h 12.57 v 4.452 h -12.57 v 1.702 z m 0.524,-5.237 c 0,-5.814 4.007,-8.119 10.685,-8.119 6.206,0 10.108,1.991 10.632,6.94 h -6.416 c -0.497,-1.335 -1.964,-1.702 -4.216,-1.702 -2.803,0 -4.4,0.577 -4.4,2.881 0,2.304 1.597,2.881 4.4,2.881 2.252,0 3.719,-0.367 4.216,-1.703 h 6.416 c -0.524,4.95 -4.426,6.941 -10.632,6.941 -6.678,0 -10.685,-2.305 -10.685,-8.119 m 32.526,-8.119 c 6.678,0 10.685,2.305 10.685,8.119 0,5.814 -4.007,8.119 -10.685,8.119 -6.678,0 -10.685,-2.305 -10.685,-8.119 0,-5.814 4.007,-8.119 10.685,-8.119 m 0,5.238 c -2.802,0 -4.4,0.577 -4.4,2.881 0,2.304 1.598,2.881 4.4,2.881 2.802,0 4.399,-0.577 4.399,-2.881 0,-2.304 -1.597,-2.881 -4.399,-2.881 M 189.393,0 h -22.521 v -5.761 h 7.856 v -12.571 h 6.809 v 12.571 h 7.856 z m 9.9,-13.618 c -1.729,0 -3.483,0.419 -4.007,2.095 h 14.901 c 0,6.862 -4.164,9.167 -10.632,9.167 -6.416,0 -10.685,-2.305 -10.685,-8.119 0,-5.814 4.269,-8.119 10.423,-8.119 6.469,0 9.847,1.991 10.632,6.155 h -6.154 c -1.283,-1.022 -2.2,-1.179 -4.478,-1.179 m 0.236,6.809 c 1.676,0 3.247,-0.157 3.954,-1.571 h -7.909 c 0.707,1.414 2.278,1.571 3.955,1.571 m 11.182,-3.666 c 0,-5.814 4.007,-8.119 10.685,-8.119 6.206,0 10.108,1.991 10.632,6.94 h -6.416 c -0.497,-1.335 -1.964,-1.702 -4.216,-1.702 -2.803,0 -4.4,0.577 -4.4,2.881 0,2.304 1.597,2.881 4.4,2.881 2.252,0 3.719,-0.367 4.216,-1.703 h 6.416 c -0.524,4.95 -4.426,6.941 -10.632,6.941 -6.678,0 -10.685,-2.305 -10.685,-8.119 m 35.983,8.119 c -3.3,0 -5.709,-1.048 -7.595,-2.358 v 7.333 h -6.285 v -20.951 h 6.285 v 8.486 c 1.231,1.178 3.195,1.99 5.054,1.99 2.829,0 3.798,-1.152 3.798,-3.85 v -6.626 h 6.285 v 9.193 c 0,5.682 -4.007,6.783 -7.542,6.783" /></g></g></g></g></svg>